# xmcd CD database file
#
# Track frame offsets:
#	150
#	11955
#	23810
#	35650
#	45682
#	55370
#	64872
#	77057
#	89332
#	102327
#	113472
#	124767
#	138022
#	149062
#	161905
#	174202
#	187615
#	199077
#	211725
#	224450
#
# Disc length: 3161 seconds
#
# Revision: 0
# Processed by: cddbd v1.4PL0 Copyright (c) Steve Scherf et al.
# Submitted via: CDex 1.40Release
#
DISCID=1a0c5714
DTITLE=Buddy Reynolds - A Canadian Country Music Pioneer
DYEAR=1900
DGENRE=Country
TTITLE0=Exile
TTITLE1=Golden Eagle Rag
TTITLE2=Tundra
TTITLE3=Roly Poly Heart
TTITLE4=Angel In Disguise
TTITLE5=Centipede
TTITLE6=Your Love Has Changed To Jealousy
TTITLE7=Ogopogo
TTITLE8=Make Believe Castle
TTITLE9=I Want To Be Your Valentine
TTITLE10=I Was Only Foolin'
TTITLE11=A Stranger's Kiss
TTITLE12=Over An Ocean Of Golden Tears
TTITLE13=Little Shoes
TTITLE14=Seeing Is Believing
TTITLE15=Blue Okanagan
TTITLE16=Blue Candian Rockies
TTITLE17=Waltz Of The Stream
TTITLE18=Spruce Bug
TTITLE19=Valley Of The Saints
EXTD=ID3G: 2
EXTT0=
EXTT1=
EXTT2=
EXTT3=
EXTT4=
EXTT5=
EXTT6=
EXTT7=
EXTT8=
EXTT9=
EXTT10=
EXTT11=
EXTT12=
EXTT13=
EXTT14=
EXTT15=
EXTT16=
EXTT17=
EXTT18=
EXTT19=
PLAYORDER=
